<svg xmlns="http://www.w3.org/2000/svg" viewBox="0 0 149 59"><defs><style>.cls-1{fill:#6495ed;}.cls-2{fill:#f4f4fb;}.cls-3{fill:#202124;}</style></defs><g id="Layer_2" data-name="Layer 2"><g id="Layer_1-2" data-name="Layer 1"><rect class="cls-1" y="3" width="149" height="56" rx="14.66"/><rect class="cls-2" width="149" height="56" rx="14.66"/><rect class="cls-1" x="12" y="10" width="54" height="36" rx="6.69"/><path class="cls-2" d="M33.22,19c.32,1.3.66,2.43,1,3.61S35,25,35.38,26.14s.78,2.34,1.17,3.47.77,2.21,1.14,3.22c.3-1.09.59-2.27.87-3.55s.57-2.61.85-4,.56-2.78.83-4.21L41,17h4q-1.06,5.7-2.36,11T39.71,38H36q-2.35-6.12-4.55-13.36-1.11,3.66-2.27,7T26.91,38H23.27q-1.64-4.78-2.92-10T18,17h4.12l.77,4.05c.27,1.43.56,2.84.85,4.21s.59,2.72.89,4,.6,2.47.91,3.56c.38-1,.77-2.11,1.16-3.25s.78-2.29,1.16-3.47.75-2.35,1.1-3.52.68-2.29,1-3.59Z"/><path class="cls-2" d="M46.5,29.94a10,10,0,0,1,.62-3.65,7.62,7.62,0,0,1,1.65-2.61,6.7,6.7,0,0,1,2.35-1.57,7.19,7.19,0,0,1,2.72-.53,6.5,6.5,0,0,1,5.09,2q1.83,2,1.83,6c0,.2,0,.43,0,.68s0,.48,0,.68H50.28a4.16,4.16,0,0,0,1.34,2.94A5.09,5.09,0,0,0,55.08,35a10.74,10.74,0,0,0,2.43-.25,10.17,10.17,0,0,0,1.74-.51l.48,3a5.83,5.83,0,0,1-.83.32,11.26,11.26,0,0,1-1.21.3c-.45.09-.94.17-1.46.23a14.17,14.17,0,0,1-1.6.09A9.78,9.78,0,0,1,51,37.54a6.76,6.76,0,0,1-2.53-1.72A7,7,0,0,1,47,33.22,10.4,10.4,0,0,1,46.5,29.94ZM57.1,28a4.8,4.8,0,0,0-.21-1.43,3.24,3.24,0,0,0-.62-1.18,2.94,2.94,0,0,0-1-.79,3.23,3.23,0,0,0-1.41-.28,3.29,3.29,0,0,0-1.48.31,3.38,3.38,0,0,0-1.07.83,4,4,0,0,0-.68,1.18A6.43,6.43,0,0,0,50.31,28Z"/><path class="cls-3" d="M87.07,18.36v3.29H80.64V39.28H76.8V21.65H70.37V18.36Z"/><path class="cls-3" d="M101.75,38.8c-.71.18-1.62.37-2.75.56a22.47,22.47,0,0,1-3.72.29,8,8,0,0,1-3.18-.55A5.08,5.08,0,0,1,90,37.59a5.9,5.9,0,0,1-1.1-2.31,12.25,12.25,0,0,1-.33-2.94V23.49h3.65v8.28A6.7,6.7,0,0,0,93,35.39a2.92,2.92,0,0,0,2.58,1.09q.67,0,1.41-.06a9.15,9.15,0,0,0,1.1-.15V23.49h3.66Z"/><path class="cls-3" d="M120.62,31.4a10,10,0,0,1-.56,3.43,7.21,7.21,0,0,1-1.6,2.61,6.72,6.72,0,0,1-2.52,1.66,9.05,9.05,0,0,1-3.35.58,21.38,21.38,0,0,1-3.46-.27,23.06,23.06,0,0,1-2.73-.61V16.45l3.65-.6V24a8.5,8.5,0,0,1,1.56-.6,7.8,7.8,0,0,1,5,.32,5.85,5.85,0,0,1,2.19,1.67A7.81,7.81,0,0,1,120.15,28,11.42,11.42,0,0,1,120.62,31.4Zm-3.74-.06a6.48,6.48,0,0,0-.92-3.68A3.28,3.28,0,0,0,113,26.3a5.37,5.37,0,0,0-1.71.27,5.29,5.29,0,0,0-1.28.6v9.1c.26,0,.6.11,1,.16a12.55,12.55,0,0,0,1.5.08,3.9,3.9,0,0,0,3.17-1.38A5.76,5.76,0,0,0,116.88,31.34Z"/><path class="cls-3" d="M123.52,31.46a10,10,0,0,1,.62-3.65,7.48,7.48,0,0,1,1.65-2.61,6.61,6.61,0,0,1,2.35-1.57,7.16,7.16,0,0,1,2.72-.53,6.51,6.51,0,0,1,5.09,2c1.22,1.35,1.82,3.36,1.82,6,0,.2,0,.43,0,.68s0,.48,0,.68H127.29a4.17,4.17,0,0,0,1.35,2.94,5.08,5.08,0,0,0,3.46,1,11.51,11.51,0,0,0,2.43-.24,10.86,10.86,0,0,0,1.73-.52l.49,3a5.83,5.83,0,0,1-.83.32c-.36.11-.76.21-1.21.3s-.94.17-1.47.23a13.91,13.91,0,0,1-1.6.09,9.73,9.73,0,0,1-3.62-.62,6.8,6.8,0,0,1-2.54-1.72,7.26,7.26,0,0,1-1.48-2.6A10.7,10.7,0,0,1,123.52,31.46Zm10.6-1.63a4.8,4.8,0,0,0-.21-1.43,3.4,3.4,0,0,0-.62-1.18,3,3,0,0,0-1-.79,3.18,3.18,0,0,0-1.4-.28,3.29,3.29,0,0,0-1.48.31,3.41,3.41,0,0,0-1.07.84,3.6,3.6,0,0,0-.68,1.17,6.58,6.58,0,0,0-.33,1.36Z"/></g></g></svg>