<svg xmlns="http://www.w3.org/2000/svg" viewBox="0 0 117.76 145.74"><defs><style>.cls-1{fill:#1c1a1f}.cls-2{fill:#303134}</style></defs><g id="Layer_2" data-name="Layer 2"><g id="Layer_1-2" data-name="Layer 1"><path d="M117.55,20c-5,0-10.11,0-15.16,0-3.87,0-3.88,0-3.88-4q0-7.87,0-15.75c1.24-.22,1.72.83,2.38,1.48q7.68,7.62,15.3,15.3C117,17.78,118.1,18.49,117.55,20Z" class="cls-1"/><path d="M117.7,22.92c0-1-.1-2-.15-3-5,0-10.11,0-15.16,0-3.87,0-3.88,0-3.88-4q0-7.87,0-15.75C97.71.12,96.92,0,96.13,0H3.48C0,0,0,0,0,3.62V108.26c0,7.88,0,15.75,0,23.62a4.76,4.76,0,0,0,1.27,3.81c3.08,3,6.15,6,9.11,9.06,1.23,1.29,2,1.05,3.1-.12,2.68-2.81,5.6-5.4,8.17-8.3,1.59-1.79,2.52-1.48,4,.08,2.7,2.92,5.66,5.61,8.39,8.51,1.11,1.18,1.74,1,2.77-.07,2.88-3,5.94-5.88,8.82-8.92,1.19-1.25,1.94-1.16,3.09,0,2.88,3,5.92,5.9,8.83,8.92,1,1,1.62,1.07,2.63,0,3-3.08,6.1-6,9.06-9.11,1.1-1.15,1.75-1.08,2.83.05,2.87,3,5.95,5.89,8.82,8.92,1.2,1.26,2,1.16,3.09,0,2.82-3,5.85-5.71,8.61-8.71,1.32-1.43,2.08-1.24,3.29,0,2.59,2.76,5.4,5.31,8,8.09,1.5,1.62,2.51,2,4.15.09a95.61,95.61,0,0,1,7.59-7.61,6.32,6.32,0,0,0,2.21-5.18Q117.64,77.19,117.7,22.92ZM32.6,56.21a3,3,0,0,1-.34-4.55,48.72,48.72,0,0,1,4.37-4.49c1-.9.93-1.5,0-2.37a52.31,52.31,0,0,1-4-4c-1.54-1.73-1.49-3.75,0-5.05s3.05-1.08,4.76.52c1.31,1.22,2.59,2.48,3.8,3.81,1,1.09,1.77,1,2.7,0,1.21-1.32,2.46-2.62,3.78-3.82,1.82-1.66,3.6-1.7,5-.24s1.23,3.22-.45,5c-1.16,1.23-2.33,2.46-3.6,3.58s-1.28,1.8-.07,2.86,2.43,2.36,3.6,3.59c1.73,1.82,1.9,3.5.54,5s-3.27,1.44-5.22-.36C46.18,54.46,45,53.22,43.82,52a2.52,2.52,0,0,0-1.57-1c-.41.36-.87.72-1.29,1.13-1.36,1.32-2.65,2.7-4.05,4A3,3,0,0,1,32.6,56.21ZM80.11,89.37c-1.9,1.23-3.36.44-4.67-1.08a21.9,21.9,0,0,0-12.25-7.45c-7.76-1.65-14.7.15-20.3,5.73-2.4,2.4-4.75,2.44-6,1.27-1.72-1.66-1.36-3.54,1.29-6.07,5.57-5.33,12.23-8,20.47-8.1A27.89,27.89,0,0,1,80.56,84.25C82.19,86.23,82,88.16,80.11,89.37ZM85.45,56c-1.34,1.46-3.24,1.45-5-.14a28.39,28.39,0,0,1-3.37-3.39c-1.38-1.72-2.42-1.43-3.72.1a37.79,37.79,0,0,1-3.83,3.76,3,3,0,0,1-3.61.32,2.26,2.26,0,0,1-.4-.25,2.87,2.87,0,0,1-.86-1l0-.07a2.52,2.52,0,0,1-.14-.33,3.68,3.68,0,0,1-.21-1.35,3.93,3.93,0,0,1,1-2.41c1.58-1.86,4.79-3.25,4.58-5.42-.19-1.87-3-3.47-4.65-5.2a3.37,3.37,0,0,1,.56-5.17,2.85,2.85,0,0,1,3.61.15,48,48,0,0,1,4.27,4.17c1.09,1.24,1.91,1.44,3.07.09a44,44,0,0,1,3.81-3.79c1.69-1.51,3.41-1.52,4.78-.15s1.33,3.12-.15,4.78a32.59,32.59,0,0,1-3.37,3.38c-1.54,1.28-1.84,2.34-.09,3.72a30.73,30.73,0,0,1,3.37,3.38C86.63,52.85,86.72,54.58,85.45,56Z" class="cls-2"/></g></g></svg>